# xmcd
#
# Track frame offsets:
#	150
#	40443
#	71001
#	114385
#	153133
#	193301
#	206706
#	212397
#	240348
#	253227
#	278491
#	293949
#	321939
#	358154
#	384782
#
# Disc length: 5274 seconds
#
# Revision: 1
# Processed by: cddbd v1.5.2PL0 Copyright (c) Steve Scherf et al.
# Submitted via: audiograbber 1.83.01
#
DISCID=e214980f
DTITLE=Wolf Biermann - Wolf Biermann - zu Gast beim NDR (1982 - 2006) (2 CDs)
DYEAR=1982
DGENRE=Politiklieder
TTITLE0=Im Westen - Bei Flut
TTITLE1=Exil - Aber vorher
TTITLE2=Paris - Die Mainacht
TTITLE3=Arbeitslos - Schöner Mai in Duisburg
TTITLE4=Zwillinge - Willkommenslieder für Marie und Til
TTITLE5=Nazilieder - Bomben auf Engelland
TTITLE6=Arbeiterlied - Auf und nieder
TTITLE7=Lieder aus dem KZ - Die Moorsoldaten
TTITLE8=Schlager nach ´49 - Mein Kaugummi
TTITLE9=Brecht - Grabrede für einen Genossen
TTITLE10=Eisler - Lied vom kleinen Wind
TTITLE11=Russischer Blues - Rabe, Rabe
TTITLE12=Preußischer Blues - Großes Gebet der alten Kommunistin Oma Meume
TTITLE13=Gospel - Amazing Grace
TTITLE14=Arbeiterlied - Des Volkes Blut
EXTD=
EXTT0=
EXTT1=
EXTT2=
EXTT3=
EXTT4=
EXTT5=
EXTT6=
EXTT7=
EXTT8=
EXTT9=
EXTT10=
EXTT11=
EXTT12=
EXTT13=
EXTT14=
PLAYORDER=
